<svg width="155" height="27" viewBox="0 0 155 27" fill="none" xmlns="http://www.w3.org/2000/svg">
<path d="M13.6054 26.3594C11.764 26.3594 10.0476 26.0639 8.45626 25.4728C6.88766 24.859 5.52366 23.9951 4.36426 22.8812C3.20486 21.7673 2.29553 20.4601 1.63626 18.9597C0.999729 17.4593 0.681462 15.8111 0.681462 14.0152C0.681462 12.2193 0.999729 10.5711 1.63626 9.07069C2.29553 7.57029 3.20486 6.26313 4.36426 5.1492C5.5464 4.03526 6.92176 3.18276 8.49036 2.59169C10.059 1.9779 11.7753 1.671 13.6395 1.671C15.7082 1.671 17.5723 2.03473 19.2319 2.7622C20.9141 3.46693 22.3236 4.51266 23.4603 5.8994L19.9139 9.173C19.0955 8.24093 18.1861 7.54756 17.1859 7.0929C16.1856 6.6155 15.0944 6.3768 13.9123 6.3768C12.7983 6.3768 11.7753 6.55866 10.8433 6.9224C9.9112 7.28613 9.10416 7.80899 8.42216 8.491C7.74016 9.173 7.20593 9.98003 6.81946 10.9121C6.45573 11.8442 6.27386 12.8785 6.27386 14.0152C6.27386 15.1519 6.45573 16.1862 6.81946 17.1183C7.20593 18.0504 7.74016 18.8574 8.42216 19.5394C9.10416 20.2214 9.9112 20.7443 10.8433 21.108C11.7753 21.4717 12.7983 21.6536 13.9123 21.6536C15.0944 21.6536 16.1856 21.4263 17.1859 20.9716C18.1861 20.4942 19.0955 19.7781 19.9139 18.8233L23.4603 22.0969C22.3236 23.4836 20.9141 24.5407 19.2319 25.2682C17.5723 25.9957 15.6968 26.3594 13.6054 26.3594ZM37.9013 25.9502V22.3697L37.5603 21.5854V15.1746C37.5603 14.0379 37.208 13.1513 36.5032 12.5148C35.8212 11.8783 34.7641 11.56 33.3319 11.56C32.3544 11.56 31.3882 11.7191 30.4334 12.0374C29.5014 12.3329 28.7057 12.7421 28.0464 13.265L26.1368 9.54809C27.1371 8.84336 28.342 8.29776 29.7514 7.91129C31.1609 7.52483 32.5931 7.3316 34.048 7.3316C36.8442 7.3316 39.0153 7.99086 40.5611 9.30939C42.107 10.6279 42.8799 12.6853 42.8799 15.4815V25.9502H37.9013ZM32.3089 26.223C30.8767 26.223 29.6491 25.9843 28.6261 25.5069C27.6031 25.0068 26.8188 24.3361 26.2732 23.495C25.7276 22.6539 25.4548 21.7104 25.4548 20.6647C25.4548 19.5735 25.7163 18.6187 26.2391 17.8003C26.7847 16.9819 27.6372 16.3454 28.7966 15.8907C29.956 15.4133 31.4678 15.1746 33.3319 15.1746H38.2082V18.2777H33.9116C32.6613 18.2777 31.7974 18.4823 31.32 18.8915C30.8654 19.3007 30.638 19.8122 30.638 20.426C30.638 21.108 30.8995 21.6536 31.4223 22.0628C31.9679 22.4493 32.7068 22.6425 33.6388 22.6425C34.5254 22.6425 35.3211 22.4379 36.0258 22.0287C36.7306 21.5968 37.2421 20.9716 37.5603 20.1532L38.3787 22.6084C37.9923 23.7905 37.2875 24.6885 36.2645 25.3023C35.2415 25.9161 33.923 26.223 32.3089 26.223ZM53.8324 26.223C52.2638 26.223 50.7521 26.0411 49.2971 25.6774C47.8649 25.2909 46.7283 24.8135 45.8871 24.2452L47.6603 20.426C48.5015 20.9489 49.4904 21.3808 50.627 21.7218C51.7864 22.0401 52.9231 22.1992 54.037 22.1992C55.2646 22.1992 56.1285 22.0514 56.6286 21.7559C57.1515 21.4604 57.4129 21.0512 57.4129 20.5283C57.4129 20.0964 57.2083 19.7781 56.7991 19.5735C56.4127 19.3462 55.8898 19.1757 55.2305 19.062C54.5713 18.9483 53.8438 18.8347 53.0481 18.721C52.2752 18.6073 51.4909 18.4596 50.6952 18.2777C49.8996 18.0731 49.1721 17.7776 48.5128 17.3911C47.8536 17.0046 47.3193 16.4818 46.9101 15.8225C46.5237 15.1632 46.3304 14.3107 46.3304 13.265C46.3304 12.1056 46.6601 11.0826 47.3193 10.196C48.0013 9.30939 48.9789 8.61603 50.2519 8.1159C51.525 7.59303 53.0481 7.3316 54.8213 7.3316C56.0717 7.3316 57.3447 7.468 58.6405 7.74079C59.9363 8.0136 61.0162 8.41143 61.88 8.9343L60.1068 12.7194C59.2202 12.1965 58.3223 11.8442 57.4129 11.6623C56.5263 11.4577 55.6625 11.3554 54.8213 11.3554C53.6392 11.3554 52.7753 11.5145 52.2297 11.8328C51.6841 12.1511 51.4113 12.5603 51.4113 13.0604C51.4113 13.5151 51.6046 13.8561 51.991 14.0834C52.4002 14.3107 52.9345 14.4926 53.5937 14.629C54.253 14.7654 54.9691 14.8904 55.742 15.0041C56.5377 15.095 57.3334 15.2428 58.129 15.4474C58.9247 15.652 59.6408 15.9475 60.2773 16.334C60.9366 16.6977 61.4708 17.2092 61.88 17.8685C62.2892 18.505 62.4938 19.3462 62.4938 20.3919C62.4938 21.5286 62.1528 22.5402 61.4708 23.4268C60.7888 24.2907 59.7999 24.9727 58.5041 25.4728C57.2311 25.9729 55.6738 26.223 53.8324 26.223ZM76.8926 7.3316C78.3475 7.3316 79.6433 7.62713 80.78 8.21819C81.9394 8.78653 82.8487 9.67313 83.508 10.878C84.1672 12.0601 84.4969 13.5833 84.4969 15.4474V25.9502H79.1773V16.2658C79.1773 14.7881 78.8476 13.6969 78.1884 12.9922C77.5518 12.2875 76.6425 11.9351 75.4604 11.9351C74.6192 11.9351 73.8577 12.117 73.1757 12.4807C72.5164 12.8217 71.9935 13.3559 71.6071 14.0834C71.2433 14.8109 71.0615 15.7429 71.0615 16.8796V25.9502H65.7419V0.647995H71.0615V12.6853L69.868 11.1508C70.5272 9.9232 71.4707 8.97976 72.6983 8.3205C73.9259 7.66123 75.324 7.3316 76.8926 7.3316ZM87.7883 25.9502V22.3697L96.9953 13.6742C97.7228 13.0149 98.257 12.4239 98.598 11.901C98.939 11.3781 99.1663 10.9007 99.28 10.4688C99.4164 10.0369 99.4846 9.63903 99.4846 9.2753C99.4846 8.3205 99.155 7.59303 98.4957 7.0929C97.8592 6.57003 96.9157 6.3086 95.6654 6.3086C94.6651 6.3086 93.7331 6.50183 92.8692 6.8883C92.0281 7.27476 91.312 7.87719 90.7209 8.69559L86.6971 6.104C87.6064 4.74 88.8795 3.66016 90.5163 2.86449C92.1531 2.06883 94.04 1.671 96.1769 1.671C97.9501 1.671 99.496 1.96653 100.815 2.55759C102.156 3.12593 103.19 3.93296 103.918 4.9787C104.668 6.02443 105.043 7.27476 105.043 8.7297C105.043 9.50263 104.941 10.2756 104.736 11.0485C104.554 11.7987 104.168 12.5944 103.577 13.4355C103.008 14.2766 102.167 15.2201 101.053 16.2658L93.4148 23.4609L92.3577 21.449H105.827V25.9502H87.7883ZM121.099 26.3594C119.212 26.3594 117.473 26.0639 115.881 25.4728C114.313 24.859 112.937 23.9951 111.755 22.8812C110.596 21.7673 109.687 20.4601 109.027 18.9597C108.391 17.4593 108.072 15.8111 108.072 14.0152C108.072 12.2193 108.391 10.5711 109.027 9.07069C109.687 7.57029 110.607 6.26313 111.789 5.1492C112.972 4.03526 114.358 3.18276 115.95 2.59169C117.541 1.9779 119.291 1.671 121.201 1.671C123.315 1.671 125.213 2.02336 126.896 2.72809C128.601 3.43283 130.033 4.45583 131.192 5.7971L127.646 9.07069C126.782 8.16136 125.839 7.49073 124.816 7.0588C123.793 6.60413 122.679 6.3768 121.474 6.3768C120.314 6.3768 119.257 6.55866 118.302 6.9224C117.348 7.28613 116.518 7.80899 115.813 8.491C115.131 9.173 114.597 9.98003 114.21 10.9121C113.847 11.8442 113.665 12.8785 113.665 14.0152C113.665 15.1291 113.847 16.1521 114.21 17.0842C114.597 18.0163 115.131 18.8347 115.813 19.5394C116.518 20.2214 117.336 20.7443 118.268 21.108C119.223 21.4717 120.269 21.6536 121.406 21.6536C122.497 21.6536 123.554 21.4831 124.577 21.1421C125.623 20.7784 126.634 20.1759 127.612 19.3348L130.749 23.3245C129.453 24.302 127.941 25.0522 126.214 25.5751C124.509 26.098 122.804 26.3594 121.099 26.3594ZM125.702 22.6084V13.6401H130.749V23.3245L125.702 22.6084ZM144.201 26.223C142.246 26.223 140.507 25.8138 138.984 24.9954C137.483 24.177 136.29 23.0631 135.403 21.6536C134.539 20.2214 134.107 18.596 134.107 16.7773C134.107 14.9359 134.539 13.3105 135.403 11.901C136.29 10.4688 137.483 9.35486 138.984 8.55919C140.507 7.7408 142.246 7.3316 144.201 7.3316C146.133 7.3316 147.861 7.7408 149.384 8.55919C150.907 9.35486 152.101 10.4574 152.965 11.8669C153.828 13.2764 154.26 14.9132 154.26 16.7773C154.26 18.596 153.828 20.2214 152.965 21.6536C152.101 23.0631 150.907 24.177 149.384 24.9954C147.861 25.8138 146.133 26.223 144.201 26.223ZM144.201 21.8582C145.087 21.8582 145.883 21.6536 146.588 21.2444C147.293 20.8352 147.85 20.2555 148.259 19.5053C148.668 18.7324 148.873 17.823 148.873 16.7773C148.873 15.7088 148.668 14.7995 148.259 14.0493C147.85 13.2991 147.293 12.7194 146.588 12.3102C145.883 11.901 145.087 11.6964 144.201 11.6964C143.314 11.6964 142.519 11.901 141.814 12.3102C141.109 12.7194 140.541 13.2991 140.109 14.0493C139.7 14.7995 139.495 15.7088 139.495 16.7773C139.495 17.823 139.7 18.7324 140.109 19.5053C140.541 20.2555 141.109 20.8352 141.814 21.2444C142.519 21.6536 143.314 21.8582 144.201 21.8582Z" fill="white"/>
</svg>
